<?xml version="1.0" encoding="utf-8"?>
<!-- Generator: Adobe Illustrator 26.3.1, SVG Export Plug-In . SVG Version: 6.00 Build 0)  -->
<svg version="1.1" xmlns="http://www.w3.org/2000/svg" xmlns:xlink="http://www.w3.org/1999/xlink" x="0px" y="0px"
	 viewBox="0 0 322.9 89.6" style="enable-background:new 0 0 322.9 89.6;" xml:space="preserve">
<style type="text/css">
	.st0{filter:url(#Adobe_OpacityMaskFilter);}
	.st1{fill:url(#SVGID_00000110436910519198269110000011103271357119893147_);}
	.st2{mask:url(#SVGID_1_);fill:url(#SVGID_00000049902563569302512140000009115283130742983353_);}
	.st3{fill:#004072;}
</style>
<g id="GradientDot">
</g>
<g id="LogoType">
	<g>
		<defs>
			<filter id="Adobe_OpacityMaskFilter" filterUnits="userSpaceOnUse" x="61.7" y="44.8" width="14.8" height="14.8">
				<feColorMatrix  type="matrix" values="1 0 0 0 0  0 1 0 0 0  0 0 1 0 0  0 0 0 1 0"/>
			</filter>
		</defs>
		<mask maskUnits="userSpaceOnUse" x="61.7" y="44.8" width="14.8" height="14.8" id="SVGID_1_">
			<g class="st0">
				
					<radialGradient id="SVGID_00000068639768340068201590000017061818235746191771_" cx="69.1441" cy="52.2192" r="7.4139" gradientUnits="userSpaceOnUse">
					<stop  offset="0" style="stop-color:#FFFFFF"/>
					<stop  offset="0.1074" style="stop-color:#FFFFFF"/>
					<stop  offset="0.1732" style="stop-color:#F3F3F3"/>
					<stop  offset="0.2899" style="stop-color:#BCBCBC"/>
					<stop  offset="0.5109" style="stop-color:#585858"/>
					<stop  offset="0.6648" style="stop-color:#191919"/>
					<stop  offset="0.7374" style="stop-color:#000000"/>
					<stop  offset="1" style="stop-color:#000000"/>
				</radialGradient>
				<circle style="fill:url(#SVGID_00000068639768340068201590000017061818235746191771_);" cx="69.1" cy="52.2" r="7.4"/>
			</g>
		</mask>
		
			<radialGradient id="SVGID_00000143575529639810498810000018414087246922885034_" cx="69.1441" cy="52.2192" r="7.4139" gradientUnits="userSpaceOnUse">
			<stop  offset="0" style="stop-color:#004072"/>
			<stop  offset="0.1696" style="stop-color:#004072"/>
			<stop  offset="1" style="stop-color:#004072"/>
		</radialGradient>
		
			<circle style="mask:url(#SVGID_1_);fill:url(#SVGID_00000143575529639810498810000018414087246922885034_);" cx="69.1" cy="52.2" r="7.4"/>
		<g>
			<path class="st3" d="M107.7,51.9v-1.1c0-1.6-0.3-3.2-0.8-4.8c-0.5-1.6-1.3-3-2.3-4.2c-1-1.2-2.4-2.2-3.9-3
				c-1.6-0.7-3.4-1.1-5.6-1.1c-1.8,0-3.5,0.3-5.1,1c-1.6,0.7-3,1.7-4.1,2.9c-1.2,1.3-2.1,2.8-2.8,4.5c-0.7,1.7-1,3.6-1,5.7
				c0,2.1,0.3,4.1,1,5.9c0.7,1.8,1.6,3.4,2.8,4.7c1.2,1.3,2.6,2.3,4.3,3.1c1.7,0.7,3.5,1.1,5.5,1.1c2.4,0,4.5-0.5,6.2-1.4
				c1.8-0.9,3.4-2.2,4.7-4l-0.9-0.8c-1.2,1.6-2.7,2.9-4.3,3.7c-1.7,0.8-3.6,1.3-5.7,1.3c-2.1,0-3.9-0.4-5.4-1.2
				c-1.5-0.8-2.8-1.8-3.8-3.1c-1-1.3-1.8-2.7-2.3-4.4c-0.4-1.3-0.6-2.6-0.7-4c0,0,0,0,0,0c0-0.2,0-0.5,0-0.7c0-0.1,0-0.1,0-0.2h0
				c0-0.1,0-0.2,0-0.3c0-0.5,0.1-1.3,0.1-1.3c0,0,0,0,0,0c0.1-0.9,0.3-1.9,0.6-3.1c0.4-1.4,1.1-2.7,2-3.9c0.9-1.2,2.1-2.3,3.6-3.1
				c1.5-0.8,3.2-1.3,5.3-1.3c1.7,0,3.2,0.3,4.6,0.9c1.4,0.6,2.6,1.4,3.6,2.4c1,1,1.8,2.3,2.3,3.8c0.5,1.4,0.8,2.9,0.9,4.6
				c0,0,0,0,0,0c0,0,0,0.1,0,0.2c0,0,0,0,0,0h0c0,0.3,0,0.8,0,1.1H107.7z"/>
			<path class="st3" d="M22.4,65.8V21.1h1.3v44.8H22.4z"/>
			<path class="st3" d="M48.4,62.1c-0.7,1-1.6,1.8-2.5,2.5c-0.9,0.7-2,1.2-3.1,1.5c-1.1,0.4-2.3,0.5-3.4,0.5c-1.9,0-3.5-0.3-4.7-1
				c-1.3-0.7-2.3-1.6-3-2.7c-0.8-1.1-1.3-2.3-1.6-3.7c-0.3-1.4-0.5-2.8-0.5-4.2V38.6h1.3v16.3c0,1.1,0.1,2.3,0.4,3.6
				c0.2,1.2,0.7,2.4,1.3,3.4c0.7,1,1.5,1.9,2.6,2.6c1.1,0.7,2.5,1,4.2,1c1.5,0,2.9-0.3,4.2-0.9c1.3-0.6,2.5-1.5,3.4-2.6
				c1-1.1,1.7-2.5,2.3-4.2c0.6-1.6,0.9-3.5,0.9-5.6V38.6h1.3V59c0,0.4,0,1,0,1.6c0,0.6,0,1.3,0.1,1.9c0,0.7,0,1.3,0.1,1.9
				c0,0.6,0.1,1.1,0.1,1.5h-1.3c0-0.4-0.1-0.9-0.1-1.5c0-0.6,0-1.2-0.1-1.9c0-0.7,0-1.4-0.1-2c0-0.7,0-1.2,0-1.7h-0.1
				C49.8,59.9,49.2,61.1,48.4,62.1z"/>
			<path class="st3" d="M76.9,42.3c-1-1.1-2.2-1.9-3.6-2.5c-1.4-0.6-2.8-0.9-4.3-0.9c-1.9,0-3.7,0.4-5.2,1.1
				c-1.5,0.7-2.9,1.7-3.9,2.9c-1.1,1.2-1.9,2.6-2.5,4.3s-0.9,3.3-0.9,5.1c0,1.8,0.3,3.5,0.9,5.1c0.6,1.6,1.4,3,2.5,4.2
				c1.1,1.2,2.4,2.2,3.9,2.9c1.5,0.7,3.3,1.1,5.2,1.1c1.5,0,3-0.3,4.4-0.8c1.4-0.5,2.7-1.3,3.8-2.3l0.9,0.8c-1.2,1.2-2.6,2-4.2,2.6
				c-1.6,0.5-3.2,0.8-4.9,0.8c-2,0-3.9-0.4-5.5-1.1c-1.7-0.7-3.1-1.7-4.4-3c-1.2-1.3-2.2-2.8-2.9-4.6c-0.7-1.8-1-3.7-1-5.8
				c0-2.1,0.3-4,1-5.8c0.7-1.8,1.7-3.3,2.9-4.6c1.2-1.3,2.7-2.3,4.4-3c1.7-0.7,3.5-1.1,5.5-1.1c1.7,0,3.4,0.3,4.9,0.9
				c1.6,0.6,2.9,1.5,4,2.7L76.9,42.3z"/>
			<path class="st3" d="M132,46.1c0.8-2.7,2.1-4.7,4-6.2c1.9-1.4,4-2.2,6.5-2.2c1.8,0,3.3,0.3,4.6,1c1.2,0.7,2.2,1.6,3,2.7
				c0.7,1.1,1.3,2.4,1.6,3.7c0.3,1.4,0.5,2.8,0.5,4.2v16.5h-1.3V49.5c0-1.1-0.1-2.3-0.4-3.6c-0.3-1.3-0.7-2.4-1.3-3.4
				c-0.6-1-1.5-1.9-2.5-2.6c-1.1-0.7-2.4-1-4-1c-1.4,0-2.8,0.3-4,0.9c-1.2,0.6-2.3,1.5-3.3,2.6c-0.9,1.1-1.7,2.5-2.2,4.2
				c-0.6,1.6-0.8,3.5-0.8,5.6v13.6h-1.3V49.5c0-1.1-0.1-2.3-0.3-3.6c-0.2-1.3-0.6-2.4-1.2-3.4c-0.6-1-1.4-1.9-2.5-2.6
				c-1-0.7-2.4-1-4-1c-1.4,0-2.8,0.3-4,0.9c-1.2,0.6-2.3,1.5-3.3,2.6c-0.9,1.1-1.7,2.5-2.2,4.2c-0.5,1.6-0.8,3.5-0.8,5.6v13.6h-1.3
				V45.5c0-0.4,0-1,0-1.6c0-0.6,0-1.3-0.1-1.9c0-0.7,0-1.3-0.1-1.9c0-0.6-0.1-1.1-0.1-1.5h1.3c0,0.4,0.1,0.9,0.1,1.5
				c0,0.6,0,1.2,0.1,1.9c0,0.7,0,1.4,0.1,2c0,0.7,0,1.2,0,1.7h0.1c0.4-1.3,0.9-2.4,1.7-3.4c0.7-1,1.5-1.8,2.4-2.5
				c0.9-0.7,1.9-1.2,2.9-1.6c1-0.4,2.1-0.5,3.2-0.5c1.4,0,2.7,0.2,3.7,0.7c1,0.4,1.9,1,2.6,1.8c0.7,0.8,1.3,1.6,1.7,2.6
				c0.4,1,0.7,2.1,0.9,3.3H132z"/>
			<path class="st3" d="M215.6,51.3c0,0.3,0,0.7,0,1c0,0.3,0,0.7-0.1,1h-23.1c0,1.2,0.3,2.4,0.8,3.4c0.5,1.1,1.2,2,2.1,2.8
				c0.9,0.8,1.9,1.4,3,1.9c1.1,0.4,2.3,0.7,3.6,0.7c2,0,3.7-0.4,5.1-1.3c1.4-0.9,2.6-1.9,3.4-3.1l4.1,3.3c-1.6,2.1-3.4,3.6-5.5,4.6
				c-2.1,1-4.4,1.5-7,1.5c-2.2,0-4.3-0.4-6.1-1.1c-1.9-0.7-3.5-1.8-4.8-3.1c-1.4-1.3-2.4-2.9-3.2-4.8c-0.8-1.9-1.2-4-1.2-6.3
				c0-2.2,0.4-4.3,1.1-6.2c0.8-1.9,1.8-3.5,3.2-4.9c1.4-1.4,3-2.4,4.8-3.2c1.8-0.8,3.8-1.1,6-1.1c2.1,0,4.1,0.3,5.8,1
				c1.7,0.7,3.2,1.7,4.4,3c1.2,1.3,2.1,2.9,2.8,4.8C215.3,46.9,215.6,49,215.6,51.3z M209.7,49c0-1.1-0.2-2.2-0.6-3.2
				c-0.3-1-0.9-1.9-1.5-2.6c-0.7-0.7-1.5-1.3-2.5-1.7c-1-0.4-2.2-0.6-3.5-0.6c-1.2,0-2.4,0.2-3.5,0.6c-1.1,0.4-2,1-2.8,1.7
				c-0.8,0.7-1.5,1.6-2,2.6c-0.5,1-0.8,2.1-0.9,3.2H209.7z"/>
			<path class="st3" d="M237.1,47.3c0-2.2-0.7-3.8-2-4.8c-1.3-1-3-1.6-5.2-1.6c-1.6,0-3.2,0.3-4.6,1c-1.5,0.6-2.7,1.4-3.7,2.4
				l-3.1-3.7c1.4-1.4,3.2-2.4,5.2-3.2c2.1-0.8,4.3-1.2,6.7-1.2c2.1,0,3.9,0.3,5.4,0.9c1.5,0.6,2.8,1.4,3.8,2.4c1,1,1.7,2.2,2.2,3.6
				c0.5,1.4,0.7,2.9,0.7,4.5v12.7c0,1,0,2,0.1,3.1c0.1,1.1,0.2,2,0.3,2.7h-5.2c-0.3-1.4-0.5-2.8-0.5-4.2h-0.2
				c-1.1,1.6-2.4,2.8-4,3.6c-1.6,0.9-3.5,1.3-5.7,1.3c-1.1,0-2.3-0.2-3.6-0.5c-1.2-0.3-2.4-0.8-3.4-1.5c-1-0.7-1.9-1.6-2.5-2.8
				c-0.7-1.1-1-2.6-1-4.2c0-2.2,0.6-4,1.8-5.2c1.2-1.3,2.7-2.3,4.7-2.9c1.9-0.7,4.1-1.1,6.5-1.3c2.4-0.2,4.8-0.3,7.3-0.3V47.3z
				 M235.7,52.2c-1.4,0-2.9,0.1-4.4,0.2c-1.5,0.1-2.9,0.4-4.2,0.7c-1.2,0.4-2.3,0.9-3.1,1.7c-0.8,0.7-1.2,1.7-1.2,2.9
				c0,0.9,0.2,1.6,0.5,2.1c0.3,0.6,0.8,1,1.4,1.4c0.6,0.4,1.2,0.6,1.9,0.8c0.7,0.1,1.4,0.2,2.1,0.2c2.7,0,4.8-0.8,6.2-2.4
				c1.5-1.6,2.2-3.7,2.2-6.1v-1.5H235.7z"/>
			<path class="st3" d="M253,66.1h-5.8V19.7h5.8V66.1z"/>
			<path class="st3" d="M269.2,61.6c-0.6,0.1-1.2,0.2-1.7,0.2c-1.4,0-2.5-0.4-3.1-1.1c-0.7-0.8-1-2-1-3.8V41.7h5.3
				c2,0,2.3-2.5,2.4-3.9V37h-7.7v-8.3h-5.7V36h0v8.3h0v13.2c0,3,0.7,5.3,2.2,6.8c1.5,1.5,3.5,2.3,6.3,2.3c0.9,0,1.8-0.1,2.6-0.2
				c0.8-0.1,1.6-0.3,2.3-0.6l-0.2-4.7C270.4,61.3,269.8,61.5,269.2,61.6z"/>
			<path class="st3" d="M299.8,43.4c-0.4-1.4-1.1-2.7-2-3.7c-0.9-1.1-2-1.9-3.4-2.5c-1.4-0.6-3-1-4.8-1c-2.1,0-4,0.5-5.6,1.5
				c-1.7,1-2.9,2.3-3.6,3.7h-0.1V19.7h-5.8v46.4h3.7c1.5-0.3,1.9-2,2.1-3.3V50.7c0-2.9,0.7-5.2,2.2-7c1.5-1.7,3.4-2.6,5.6-2.6
				c1.4,0,2.4,0.2,3.3,0.7c0.8,0.5,1.5,1.1,2,2c0.5,0.8,0.8,1.8,1,2.8c0.2,1.1,0.3,2.2,0.3,3.4v16.1h5.8v-18
				C300.5,46.4,300.3,44.9,299.8,43.4z"/>
			<path class="st3" d="M183.1,43.4c-0.4-1.4-1.1-2.7-2-3.7c-0.9-1.1-2-1.9-3.4-2.5c-1.4-0.6-3-1-4.8-1c-2.1,0-4,0.5-5.6,1.5
				c-1.7,1-2.9,2.3-3.6,3.7h-0.1V19.7h-5.8v46.4h3.7c1.3-0.3,1.8-1.7,2-2.9V50.7c0-2.9,0.7-5.2,2.2-7c1.5-1.7,3.4-2.6,5.6-2.6
				c1.4,0,2.4,0.2,3.3,0.7c0.8,0.5,1.5,1.1,2,2c0.5,0.8,0.8,1.8,1,2.8c0.2,1.1,0.3,2.2,0.3,3.4v16.1h5.8v-18
				C183.8,46.4,183.5,44.9,183.1,43.4z"/>
			<path class="st3" d="M107,51.7l0.7,0.2l0,0.8H69.1c-0.3,0-0.5-0.2-0.5-0.5c0-0.3,0.2-0.5,0.5-0.5L107,51.7z"/>
		</g>
		<g>
			<path class="st3" d="M311.1,62.4c0,2.2-1.8,4-4,4c-2.3,0-4.1-1.8-4.1-4c0-2.2,1.8-3.9,4.1-3.9C309.4,58.5,311.1,60.2,311.1,62.4z
				 M304,62.4c0,1.8,1.3,3.1,3.1,3.1c1.7,0,3-1.4,3-3.1c0-1.8-1.3-3.2-3-3.2C305.3,59.3,304,60.7,304,62.4z M306.5,64.5h-0.9v-3.9
				c0.4-0.1,0.9-0.1,1.5-0.1c0.7,0,1.1,0.1,1.4,0.3c0.2,0.2,0.4,0.5,0.4,0.9c0,0.4-0.3,0.8-0.8,0.9v0c0.4,0.1,0.6,0.4,0.7,1
				c0.1,0.6,0.2,0.8,0.3,1h-1c-0.1-0.1-0.2-0.5-0.3-1c-0.1-0.4-0.3-0.6-0.8-0.6h-0.4V64.5z M306.5,62.3h0.4c0.5,0,0.9-0.2,0.9-0.6
				c0-0.4-0.3-0.6-0.8-0.6c-0.2,0-0.4,0-0.5,0V62.3z"/>
		</g>
	</g>
</g>
</svg>
