<svg width="909" height="908" viewBox="0 0 909 908" fill="none" xmlns="http://www.w3.org/2000/svg">
<g clip-path="url(#clip0_726_1521)">
<path d="M434 454C434 442.4 437 433.1 440.6 433.1L907.5 433C896.6 192.3 698 0.399994 454.5 0.399994C204 0.399994 0.899902 203.5 0.899902 454C0.899902 704.5 204 907.6 454.5 907.6C698 907.6 896.7 715.8 907.6 475H440.6C437 475 434 465.6 434 454Z" fill="#004073"/>
<path d="M907.6 433L440.7 433.1C437 433.1 434.1 442.5 434.1 454C434.1 465.6 437.1 474.9 440.7 474.9H907.6C907.9 467.9 908.1 461 908.1 453.9C908.1 447 907.9 440 907.6 433Z" fill="white"/>
<mask id="mask0_726_1521" style="mask-type:alpha" maskUnits="userSpaceOnUse" x="157" y="156" width="595" height="596">
<path d="M454.5 751.2C618.639 751.2 751.7 618.139 751.7 454C751.7 289.861 618.639 156.8 454.5 156.8C290.361 156.8 157.3 289.861 157.3 454C157.3 618.139 290.361 751.2 454.5 751.2Z" fill="url(#paint0_radial_726_1521)"/>
</mask>
<g mask="url(#mask0_726_1521)">
</g>
<path d="M463.5 760.2C627.639 760.2 760.7 627.139 760.7 463C760.7 298.861 627.639 165.8 463.5 165.8C299.361 165.8 166.3 298.861 166.3 463C166.3 627.139 299.361 760.2 463.5 760.2Z" fill="url(#paint1_radial_726_1521)"/>
</g>
<defs>
<radialGradient id="paint0_radial_726_1521" cx="0" cy="0" r="1" gradientUnits="userSpaceOnUse" gradientTransform="translate(454.474 454) scale(297.155)">
<stop stop-color="white"/>
<stop offset="0.1074" stop-color="white"/>
<stop offset="0.1732" stop-color="#F3F3F3"/>
<stop offset="0.2899" stop-color="#BCBCBC"/>
<stop offset="0.5109" stop-color="#585858"/>
<stop offset="0.6648" stop-color="#191919"/>
<stop offset="0.7374"/>
<stop offset="1"/>
</radialGradient>
<radialGradient id="paint1_radial_726_1521" cx="0" cy="0" r="1" gradientUnits="userSpaceOnUse" gradientTransform="translate(463.474 463) scale(297.155)">
<stop stop-color="white"/>
<stop offset="0.203125" stop-color="white"/>
<stop offset="0.848958" stop-color="white" stop-opacity="0"/>
</radialGradient>
<clipPath id="clip0_726_1521">
<rect width="909" height="908" fill="white"/>
</clipPath>
</defs>
</svg>
